<?xml version="1.0" encoding="UTF-8" standalone="no"?>
<svg
   viewBox="0 0 96 96"
   version="1.1"
   id="svg26"
   sodipodi:docname="deepl-1.svg"
   inkscape:version="1.4.2 (ebf0e940d0, 2025-05-08)"
   xml:space="preserve"
   xmlns:inkscape="http://www.inkscape.org/namespaces/inkscape"
   xmlns:sodipodi="http://sodipodi.sourceforge.net/DTD/sodipodi-0.dtd"
   xmlns:xlink="http://www.w3.org/1999/xlink"
   xmlns="http://www.w3.org/2000/svg"
   xmlns:svg="http://www.w3.org/2000/svg"
   xmlns:rdf="http://www.w3.org/1999/02/22-rdf-syntax-ns#"
   xmlns:cc="http://creativecommons.org/ns#"
   xmlns:dc="http://purl.org/dc/elements/1.1/"><metadata
     id="metadata30"><rdf:RDF><cc:Work
         rdf:about=""><dc:format>image/svg+xml</dc:format><dc:type
           rdf:resource="http://purl.org/dc/dcmitype/StillImage" /></cc:Work></rdf:RDF></metadata><sodipodi:namedview
     pagecolor="#ffffff"
     bordercolor="#666666"
     borderopacity="1"
     objecttolerance="10"
     gridtolerance="10"
     guidetolerance="10"
     inkscape:pageopacity="0"
     inkscape:pageshadow="2"
     inkscape:window-width="1085"
     inkscape:window-height="982"
     id="namedview28"
     showgrid="false"
     inkscape:zoom="3.7403158"
     inkscape:cx="4.2777137"
     inkscape:cy="66.571919"
     inkscape:window-x="657"
     inkscape:window-y="0"
     inkscape:window-maximized="0"
     inkscape:current-layer="g2574"
     inkscape:showpageshadow="2"
     inkscape:pagecheckerboard="0"
     inkscape:deskcolor="#d1d1d1" /><defs
     id="defs3051"><style
       type="text/css"
       id="current-color-scheme">
      .ColorScheme-Text {
        color:#4d4d4d;
      }
      </style><linearGradient
       inkscape:collect="always"
       xlink:href="#linearGradient6139-0"
       id="linearGradient4071"
       gradientUnits="userSpaceOnUse"
       gradientTransform="matrix(1.1071428,0,0,1.1071426,-4.9939026,-3.620687)"
       x1="6"
       y1="47.000011"
       x2="90"
       y2="47.000011" /><linearGradient
       id="linearGradient6139-0"><stop
         id="stop6141-2"
         offset="0"
         style="stop-color:#b2b9bc;stop-opacity:1" /><stop
         style="stop-color:#ffffff;stop-opacity:1;"
         offset="0.25"
         id="stop6151-0" /><stop
         style="stop-color:#96a0a4;stop-opacity:1"
         offset="0.5"
         id="stop6147-1" /><stop
         id="stop6149-4"
         offset="0.75"
         style="stop-color:#f9fafb;stop-opacity:1;" /><stop
         id="stop6143-4"
         offset="1"
         style="stop-color:#b2b9bc;stop-opacity:1" /></linearGradient><linearGradient
       gradientTransform="translate(0.1489535,0.415026)"
       inkscape:collect="always"
       xlink:href="#linearGradient3832-0-6-1-1"
       id="linearGradient4129"
       x1="1.5"
       y1="88.171875"
       x2="94.5"
       y2="88.171875"
       gradientUnits="userSpaceOnUse" /><linearGradient
       id="linearGradient3832-0-6-1-1"><stop
         style="stop-color:#000000;stop-opacity:1;"
         offset="0"
         id="stop3834-6-3-7-1" /><stop
         id="stop3872-2-4"
         offset="0.1"
         style="stop-color:#000000;stop-opacity:0.58823532;" /><stop
         style="stop-color:#000000;stop-opacity:0.58823532;"
         offset="0.89999998"
         id="stop3844-6-2-7-6" /><stop
         style="stop-color:#000000;stop-opacity:1;"
         offset="1"
         id="stop3836-5-0-2-9" /></linearGradient><radialGradient
       inkscape:collect="always"
       xlink:href="#linearGradient3737"
       id="radialGradient7462"
       gradientUnits="userSpaceOnUse"
       gradientTransform="matrix(0.97513378,0,0,0.04919072,34.047649,80.581722)"
       cx="13.948145"
       cy="44.892841"
       fx="13.948145"
       fy="44.892841"
       r="43.199203" /><linearGradient
       id="linearGradient3737"><stop
         offset="0"
         style="stop-color:#ffffff;stop-opacity:1"
         id="stop3739" /><stop
         offset="1"
         style="stop-color:#ffffff;stop-opacity:0"
         id="stop3741" /></linearGradient><radialGradient
       inkscape:collect="always"
       xlink:href="#linearGradient3737"
       id="radialGradient7464"
       gradientUnits="userSpaceOnUse"
       gradientTransform="matrix(0.88832663,0,0,0.04919072,31.959518,-90.31726)"
       cx="13.948145"
       cy="44.892841"
       fx="13.948145"
       fy="44.892841"
       r="43.199203" /><linearGradient
       inkscape:collect="always"
       xlink:href="#linearGradient3737"
       id="linearGradient4767"
       gradientUnits="userSpaceOnUse"
       x1="2.7713892"
       y1="-28.64156"
       x2="50.527882"
       y2="14.514202" /><clipPath
       id="clipPath4156-4-1"
       clipPathUnits="userSpaceOnUse"><path
         inkscape:connector-curvature="0"
         id="path4158-0-8"
         d="m 27.046336,-55.695463 -14.21366,13.321486 h 0.06127 l 15.653407,21.770763 10.231384,-10.546177 C 38.561832,-32.30156 27.468089,-54.819245 27.046336,-55.695463 Z M 9.6468554,-39.382809 -5.2407289,-25.32124 15.987863,-7.8059573 26.372412,-18.382966 Z m 31.4906096,12.951445 -9.741259,9.713584 8.944804,12.4580526 7.780753,-7.5550056 z m -49.8397109,4.378822 -13.7541661,12.9822847 26.2830181,13.84571 0.06127,-0.0617 -0.122531,-0.0617 L 13.598503,-5.4007374 -8.7022409,-22.052595 Z m 38.0154159,7.400825 -9.802525,9.7752596 11.579232,9.5594001 7.62759,-7.40083 -8.669108,-11.0087257 z m 20.187073,5.6739697 -7.382526,7.2158 6.187844,8.54179 5.820249,-6.13651996 z m -32.195166,6.32154 -9.5574606,9.49772 13.6622686,7.1849703 7.933918,-7.6783603 z m 23.311629,2.37443004 -7.10683,6.93826996 8.362778,6.9074403 5.360756,-5.6739699 -0.06127,-0.0925 -0.0919,0.12335 -6.463539,-8.20258036 z m -8.730374,8.54178036 -7.505057,7.3391599 10.353916,5.45811 c 1.397496,-1.32103 5.67514,-6.12292 5.850882,-6.32154 z"
         style="opacity:0.6;fill:#ffffff;fill-opacity:1;stroke:none" /></clipPath></defs><g
     transform="translate(0,-1026.5197)"
     id="layer1"
     inkscape:label="Livello 1"><g
       id="g2574"
       style="display:inline"
       transform="translate(-0.14895645,1026.1047)"><path
         style="display:inline;opacity:0.15;fill:#000000;fill-opacity:1;fill-rule:nonzero;stroke:none"
         d="M 89.29181,0.415026 H 7.0060911 c -3.798848,0 -6.8571352,3.058285 -6.8571352,6.8571399 V 89.557884 c 0,3.798857 3.0582872,6.857142 6.8571352,6.857142 H 89.29181 c 3.798857,0 6.857147,-3.058285 6.857147,-6.857142 V 7.2721659 c 0,-3.7988549 -3.05829,-6.8571399 -6.857147,-6.8571399 z"
         id="path3288"
         inkscape:connector-curvature="0" /><path
         inkscape:connector-curvature="0"
         id="path4085"
         d="M 88.648954,1.165026 H 7.6489471 c -3.739492,0 -6.749993,3.010499 -6.749993,6.7499969 V 88.915026 c 0,3.739501 3.010501,6.75 6.749993,6.75 H 88.648954 c 3.739503,0 6.750003,-3.010499 6.750003,-6.75 V 7.9150229 c 0,-3.7394979 -3.0105,-6.7499969 -6.750003,-6.7499969 z"
         style="display:inline;opacity:0.15;fill:#000000;fill-opacity:1;fill-rule:nonzero;stroke:none" /><path
         style="display:inline;fill:url(#linearGradient4071);fill-opacity:1;fill-rule:nonzero;stroke:none"
         d="M 88.006093,1.915026 H 8.2918111 c -3.680143,0 -6.6428566,2.962713 -6.6428566,6.6428549 V 88.272171 c 0,3.680142 2.9627136,6.642856 6.6428566,6.642856 H 88.006093 c 3.680143,0 6.642854,-2.962714 6.642854,-6.642856 V 8.5578809 c 0,-3.6801419 -2.962711,-6.6428549 -6.642854,-6.6428549 z"
         id="rect4251-1"
         inkscape:connector-curvature="0" /><path
         style="display:inline;opacity:0.77864583;fill:#f5f3f3;fill-opacity:1;fill-rule:nonzero;stroke:none;stroke-width:1.02950251"
         d="m 11.390247,6.8021682 c -2.8564964,0 -5.1241284,2.2883782 -5.1241284,5.1710028 v 21.42734 7.239403 39.913674 c 1.0972399,1.684484 2.9688485,2.811732 5.1241284,2.811732 h 4.099303 65.588849 4.099302 c 2.155281,0 4.026889,-1.127248 5.124129,-2.811732 V 40.639914 33.400511 11.973171 c 0,-2.8826246 -2.267632,-5.1710028 -5.124129,-5.1710028 z"
         id="path3400-6"
         inkscape:connector-curvature="0"
         sodipodi:nodetypes="sscccsccscccsss" /><path
         inkscape:connector-curvature="0"
         id="path4989"
         d="m 9.9740341,5.1444869 c -3.116621,0 -5.667965,2.53951 -5.667965,5.6460041 v 69.277996 c 0,3.106495 2.551344,5.646004 5.667965,5.646004 H 86.765819 c 3.116621,0 5.667968,-2.539509 5.667968,-5.646004 V 10.790491 c 0,-3.1064931 -2.551347,-5.6460041 -5.667968,-5.6460041 z m 0,2.319439 H 86.765819 c 1.888099,0 3.352022,1.480095 3.352022,3.3265651 v 69.277996 c 0,1.846474 -1.463923,3.326564 -3.352022,3.326564 H 9.9740341 c -1.888099,0 -3.352022,-1.48009 -3.352022,-3.326564 V 10.790491 c 0,-1.8464701 1.463923,-3.3265651 3.352022,-3.3265651 z"
         style="color:#000000;font-style:normal;font-variant:normal;font-weight:normal;font-stretch:normal;font-size:medium;line-height:normal;font-family:Sans;-inkscape-font-specification:Sans;text-indent:0;text-align:start;text-decoration:none;text-decoration-line:none;letter-spacing:normal;word-spacing:normal;text-transform:none;writing-mode:lr-tb;direction:ltr;baseline-shift:baseline;text-anchor:start;display:inline;overflow:visible;visibility:visible;fill:#1f2224;fill-opacity:0.63265303;stroke:none;stroke-width:2.3755002;marker:none;enable-background:accumulate" /><path
         inkscape:connector-curvature="0"
         style="display:inline;opacity:0.65818182;fill:url(#linearGradient4129);fill-opacity:1;fill-rule:nonzero;stroke:none"
         d="m 1.6489535,82.258776 v 6 c 0,3.680142 2.9761066,6.65625 6.6562496,6.65625 H 87.992703 c 3.680143,0 6.656254,-2.976108 6.656254,-6.65625 v -6 c 0,3.680142 -2.976111,6.65625 -6.656254,6.65625 H 8.3052031 c -3.680143,0 -6.6562496,-2.976108 -6.6562496,-6.65625 z"
         id="path4118" /><rect
         style="opacity:0.55;fill:url(#radialGradient7462);fill-opacity:1;stroke:none"
         id="rect4131"
         width="84.250008"
         height="4.25"
         x="5.5239539"
         y="80.665031"
         rx="0"
         ry="4.25" /><rect
         ry="4.25"
         rx="0"
         y="-90.233963"
         x="5.9750223"
         height="4.25"
         width="76.75"
         id="rect4141"
         style="opacity:0.669;fill:url(#radialGradient7464);fill-opacity:1;stroke:none"
         transform="rotate(90)" /><g
         style="line-height:1"
         id="g1"
         transform="matrix(1.4376732e14,0,0,1.4376732e14,-1.7252078e15,-1.7970915e15)"><path
           clip-rule="evenodd"
           d="M 20.998,10.949 H 24 v 3.102 h -3 v 3.028 H 19.513 V 20 H 18 V 17.079 H 16.513 V 20 H 15 V 17.079 H 9 V 20 H 7.488 V 17.079 H 6 V 20 H 4.487 V 17.079 H 3 V 14.05 H 0 v -3.1 H 3 V 5 H 20.998 Z M 6,10.949 H 7.488 V 8.102 H 6 Z m 10.51,0 H 18 V 8.102 h -1.49 z"
           fill="#d97757"
           fill-rule="evenodd"
           id="path1" /></g><g
         id="g3"
         transform="matrix(-0.0982039,0,0,-0.0982039,75.155031,79.29041)"><path
           d="m 274.8,0 c 1.8,0 2.9,0.1 4.2,0.2 1,0.1 2.3,0.3 2.9,0.4 0.6,0.1 1.7,0.4 2.4,0.5 0.7,0.2 2,0.6 2.9,0.9 0.8,0.2 2.2,0.7 3,1.1 0.8,0.3 2,0.9 2.6,1.2 0.7,0.4 54.6,31.6 119.8,69.5 65.2,37.8 119.1,69.1 119.8,69.6 0.7,0.5 1.9,1.4 2.7,2 0.7,0.6 2,1.7 2.8,2.5 0.8,0.8 1.9,1.9 2.4,2.5 0.5,0.5 1.2,1.4 1.6,2 0.5,0.6 1.1,1.4 1.4,1.9 0.4,0.5 1,1.5 1.4,2.2 0.4,0.7 1,1.9 1.3,2.5 0.3,0.7 0.9,1.9 1.2,2.7 0.3,0.8 0.7,1.9 0.9,2.5 0.2,0.7 0.5,1.7 0.7,2.4 0.1,0.7 0.4,1.9 0.5,2.7 0.2,0.7 0.4,2 0.5,2.7 0.1,1.2 0.1,9.7 0.2,140.5 0,99.4 0,139.7 -0.1,140.8 -0.1,0.8 -0.2,2.1 -0.3,2.9 -0.1,0.7 -0.3,1.7 -0.4,2.1 -0.1,0.5 -0.3,1.4 -0.4,2.1 -0.2,0.6 -0.6,1.8 -0.8,2.6 -0.3,0.8 -0.7,2 -1,2.6 -0.2,0.7 -0.6,1.6 -0.9,2.1 l -1.1,2.2 c -0.4,0.7 -1.1,1.8 -1.5,2.5 -0.4,0.6 -1.1,1.6 -1.6,2.2 -0.4,0.5 -1,1.3 -1.4,1.7 -0.4,0.5 -1.2,1.4 -1.9,2.1 -0.7,0.7 -1.7,1.6 -2.2,2.1 -0.6,0.5 -1.5,1.3 -2.1,1.7 -0.5,0.4 -1.5,1.1 -2.2,1.5 -0.6,0.5 -32.2,18.8 -70.1,40.8 -38,22 -69.1,40.1 -69.2,40.2 -0.1,0.1 -2.2,1.3 -4.7,2.7 -2.5,1.5 -5,2.9 -5.5,3.2 -0.5,0.3 -1,0.6 -1.2,0.8 -0.2,0.1 -0.8,0.6 -1.4,1.1 l -1.8,1.8 c -0.4,0.5 -1,1.3 -1.4,1.8 -0.3,0.4 -0.9,1.4 -1.3,2.1 -0.4,0.7 -0.8,1.7 -1,2.2 -0.2,0.5 -0.5,1.4 -0.6,2 -0.2,0.5 -0.4,1.4 -0.4,2 -0.2,0.8 -0.2,2.2 -0.3,7.3 0,3.5 -0.1,13.5 -0.2,22.4 -0.1,14.5 -0.1,18.9 0.1,45.9 0.1,16.5 0.1,29.9 0.1,29.9 l -57.5,-33.3 c -31.6,-18.4 -58,-33.7 -58.6,-34 C 256.5,622.3 202.7,591 137.5,553.2 72.3,515.4 18.4,484 17.7,483.5 c -0.7,-0.4 -1.8,-1.2 -2.4,-1.7 -0.6,-0.5 -1.7,-1.4 -2.4,-2 -0.6,-0.6 -1.7,-1.6 -2.3,-2.3 -0.6,-0.7 -1.4,-1.6 -1.8,-2.1 -0.4,-0.5 -1,-1.3 -1.4,-1.9 C 7,473 6.4,472 6,471.4 5.6,470.8 5,469.7 4.6,468.9 4.2,468.2 3.6,466.9 3.3,466.1 2.9,465.3 2.4,464 2.1,463.2 1.9,462.4 1.5,461.1 1.3,460.5 1.2,459.8 0.9,458.8 0.8,458.2 0.7,457.6 0.6,456.7 0.5,456 0.4,455.4 0.2,454 0.2,453 0,451.4 0,435 0,313.5 0,191.3 0,175.6 0.2,174 c 0,-1 0.2,-2.3 0.3,-2.9 0.1,-0.6 0.2,-1.7 0.4,-2.4 0.1,-0.6 0.4,-1.7 0.5,-2.3 l 0.9,-2.7 c 0.2,-0.8 0.8,-2.2 1.1,-3 0.4,-0.8 1.1,-2.2 1.6,-3 0.4,-0.9 1.2,-2.2 1.7,-2.9 0.5,-0.7 1.2,-1.8 1.7,-2.4 0.5,-0.6 1.4,-1.6 2,-2.3 0.6,-0.7 1.6,-1.8 2.3,-2.4 0.7,-0.6 1.7,-1.5 2.3,-2 0.6,-0.4 1.8,-1.3 2.7,-1.9 0.8,-0.6 6.7,-4.1 13.1,-7.7 C 37.1,132.4 90.3,101.4 149,67.2 207.8,33 256.5,4.7 257.4,4.3 c 0.8,-0.5 2.3,-1.1 3.2,-1.5 0.9,-0.4 2.3,-0.8 3,-1.1 0.7,-0.2 1.9,-0.5 2.6,-0.7 0.7,-0.1 1.9,-0.4 2.6,-0.5 0.7,-0.1 1.8,-0.2 2.4,-0.3 0.6,-0.1 1.1,-0.1 1.1,-0.2 z"
           fill="#0f2b46"
           id="path1-6" /><path
           d="m 208.8,177.2 c 1.6,0 3.2,0.1 4,0.2 0.8,0.1 2,0.3 2.7,0.4 0.8,0.2 2,0.4 2.8,0.6 0.7,0.2 1.9,0.6 2.6,0.8 0.7,0.2 1.7,0.6 2.2,0.8 0.5,0.2 1.7,0.7 2.6,1.1 0.9,0.5 2.1,1.1 2.8,1.5 0.6,0.3 1.6,1 2.1,1.3 0.6,0.4 1.5,1 1.9,1.4 0.5,0.3 1.3,0.9 1.8,1.4 0.5,0.4 1.7,1.6 2.8,2.6 1,1.1 2.3,2.4 2.8,3 0.4,0.6 1.2,1.5 1.6,2.1 0.4,0.6 1.2,1.8 1.7,2.5 0.5,0.8 1.2,2.2 1.7,3.2 0.5,0.9 1.1,2.4 1.5,3.2 0.3,0.9 0.7,2 0.8,2.4 0.2,0.5 0.4,1.3 0.6,1.8 0.1,0.5 0.3,1.4 0.5,2.1 0.1,0.6 0.3,1.6 0.4,2.1 0.1,0.5 0.2,1.5 0.3,2.3 0.1,0.7 0.2,2.3 0.2,3.4 v 3.7 c -0.1,0.8 -0.2,1.9 -0.3,2.4 0,0.4 -0.2,1.5 -0.3,2.2 -0.2,0.8 -0.4,1.8 -0.5,2.4 -0.2,0.8 -0.2,1.1 -0.2,1.1 0.1,0.1 24.5,14.3 108.3,63.2 l 0.9,-0.9 c 0.5,-0.5 1.3,-1.2 1.6,-1.5 0.4,-0.3 1.4,-1.1 2.1,-1.6 0.7,-0.6 1.9,-1.4 2.7,-1.9 0.7,-0.4 1.9,-1.1 2.8,-1.6 0.8,-0.4 2.1,-1 2.9,-1.4 0.8,-0.3 2.2,-0.8 3,-1.1 0.8,-0.2 2.2,-0.7 3.2,-0.9 0.9,-0.2 2.2,-0.5 2.9,-0.6 0.6,-0.1 1.7,-0.3 2.3,-0.3 0.7,-0.1 2.2,-0.2 4.4,-0.2 2.7,0 3.7,0.1 4.8,0.2 0.7,0.1 1.9,0.3 2.7,0.4 0.7,0.2 1.9,0.4 2.7,0.6 0.7,0.2 2,0.6 2.9,0.9 0.8,0.3 2,0.7 2.5,1 0.5,0.2 1.6,0.7 2.4,1.1 0.8,0.4 2.1,1 2.8,1.5 0.8,0.5 1.7,1 2.1,1.3 0.3,0.3 1,0.7 1.4,1.1 0.5,0.3 1.3,0.9 1.8,1.4 0.5,0.4 1.5,1.4 2.3,2.1 0.8,0.8 1.8,1.9 2.3,2.4 0.5,0.6 1.3,1.5 1.7,2.1 0.5,0.6 1.2,1.6 1.7,2.3 0.4,0.6 1,1.6 1.4,2.3 0.4,0.6 0.9,1.5 1.1,2 0.2,0.4 0.7,1.5 1.1,2.3 0.3,0.8 0.8,2.1 1.1,2.8 0.2,0.8 0.6,1.9 0.8,2.6 0.2,0.7 0.4,1.9 0.6,2.6 0.1,0.8 0.3,2 0.4,2.8 0.1,0.8 0.3,2.3 0.3,3.4 q 0.1,2 0,3.9 c 0,1.1 -0.1,2.5 -0.2,3.2 -0.1,0.7 -0.3,1.8 -0.4,2.6 -0.2,0.7 -0.4,1.8 -0.6,2.5 -0.2,0.7 -0.6,2 -0.8,2.9 -0.4,0.9 -0.9,2.3 -1.2,3.1 -0.4,0.8 -0.9,1.9 -1.1,2.3 -0.2,0.5 -0.7,1.4 -1.1,2 -0.4,0.7 -0.9,1.5 -1.2,1.9 -0.2,0.4 -0.8,1.3 -1.3,1.9 -0.4,0.6 -1.2,1.6 -1.6,2.1 -0.5,0.5 -1.4,1.6 -2.1,2.3 -0.7,0.7 -1.8,1.8 -2.4,2.3 -0.6,0.6 -1.6,1.4 -2.2,1.8 -0.5,0.4 -1.5,1.2 -2.2,1.6 -0.6,0.4 -1.6,1 -2.1,1.3 -0.5,0.3 -1.5,0.9 -2.3,1.2 -0.7,0.4 -1.8,0.9 -2.4,1.2 -0.5,0.2 -1.5,0.6 -2.1,0.8 -0.6,0.2 -1.8,0.6 -2.6,0.8 -0.7,0.2 -2,0.5 -2.9,0.7 -0.8,0.2 -2.2,0.4 -3.1,0.5 -1.5,0.2 -2.2,0.3 -4.9,0.3 -2.5,0 -3.5,-0.1 -4.6,-0.2 -0.8,-0.1 -2,-0.3 -2.8,-0.4 l -2.8,-0.7 c -0.8,-0.2 -2.2,-0.6 -3,-0.9 -0.9,-0.3 -2.2,-0.8 -2.8,-1 -0.7,-0.3 -1.9,-0.9 -2.7,-1.3 -0.8,-0.4 -2,-1.1 -2.6,-1.5 -0.6,-0.3 -1.4,-0.8 -1.7,-1.1 -0.4,-0.3 -1.1,-0.7 -1.5,-1.1 -0.5,-0.3 -1.3,-1 -1.9,-1.5 -0.5,-0.4 -1.7,-1.6 -2.6,-2.4 -0.8,-0.9 -1.9,-2.1 -2.4,-2.6 -0.5,-0.6 -1.2,-1.5 -1.5,-2 -0.4,-0.5 -1,-1.3 -1.3,-1.8 -0.4,-0.5 -1,-1.5 -1.4,-2.2 -0.4,-0.7 -1,-1.9 -1.4,-2.6 -0.3,-0.8 -0.9,-2 -1.2,-2.8 -0.3,-0.8 -0.7,-1.9 -0.9,-2.6 -0.2,-0.6 -0.5,-1.7 -0.7,-2.5 -0.2,-0.8 -0.5,-1.9 -0.6,-2.5 -0.1,-0.7 -0.3,-1.7 -0.4,-2.4 0,-0.7 -0.2,-2.1 -0.2,-3.2 -0.1,-1.2 -0.1,-2.6 0,-3.8 0,-1 0.2,-2.5 0.2,-3.2 0.1,-0.7 0.4,-2.1 0.6,-3.1 0.1,-0.9 0.5,-2.3 0.7,-2.9 0.1,-0.7 0.3,-1.4 0.4,-1.5 q 0.1,-0.2 -0.1,-0.1 c -0.1,0.1 -14.7,-8.3 -107.7,-62.3 l -1.6,1.4 c -0.8,0.8 -2,1.9 -2.6,2.4 -0.6,0.5 -1.6,1.3 -2.2,1.7 -0.7,0.5 -1.7,1.2 -2.2,1.5 -0.6,0.4 -1.8,1 -2.7,1.5 -0.9,0.5 -2.1,1.1 -2.8,1.3 -0.6,0.3 -1.8,0.8 -2.5,1 -0.7,0.3 -1.9,0.6 -2.7,0.8 -0.7,0.2 -1.7,0.5 -2.3,0.6 -0.6,0.1 -1.4,0.3 -1.9,0.4 -0.5,0 -1.4,0.2 -2,0.2 -0.7,0.1 -2.3,0.2 -4.5,0.2 -2.9,0 -3.6,-0.1 -5,-0.3 -0.9,-0.1 -2.3,-0.3 -3,-0.4 -0.7,-0.2 -1.9,-0.5 -2.8,-0.7 -0.8,-0.2 -2,-0.6 -2.7,-0.9 -0.7,-0.2 -1.7,-0.6 -2.3,-0.9 -0.5,-0.2 -1.7,-0.7 -2.5,-1.2 -0.9,-0.4 -2.2,-1.1 -2.9,-1.6 -0.8,-0.5 -1.9,-1.2 -2.6,-1.7 -0.6,-0.5 -1.6,-1.2 -2,-1.6 -0.5,-0.4 -1.4,-1.2 -2.1,-1.9 -0.7,-0.7 -1.8,-1.8 -2.4,-2.5 -0.6,-0.6 -1.5,-1.7 -2,-2.3 -0.5,-0.6 -1.3,-1.7 -1.8,-2.5 -0.5,-0.8 -1.2,-1.8 -1.4,-2.3 -0.3,-0.4 -0.8,-1.3 -1.1,-2 -0.3,-0.7 -0.8,-1.7 -1.1,-2.4 -0.3,-0.6 -0.7,-1.9 -1.1,-2.9 -0.3,-0.9 -0.7,-2.2 -0.8,-2.7 -0.2,-0.6 -0.4,-1.6 -0.5,-2.3 -0.2,-0.8 -0.4,-2 -0.5,-2.9 -0.2,-1 -0.2,-2.4 -0.3,-4.2 0,-1.6 0,-3.2 0.1,-4.1 0,-0.7 0.2,-2 0.3,-2.8 0.1,-0.8 0.3,-1.8 0.4,-2.2 0,-0.4 0.3,-1.3 0.4,-2 0.2,-0.7 0.5,-1.8 0.8,-2.5 0.2,-0.7 0.6,-1.8 0.8,-2.5 0.3,-0.6 0.8,-1.9 1.2,-2.7 0.5,-0.9 1,-2 1.3,-2.4 0.2,-0.5 0.8,-1.4 1.2,-2 0.4,-0.6 1.1,-1.6 1.5,-2.2 0.5,-0.6 1.2,-1.6 1.7,-2.2 0.5,-0.5 1.6,-1.7 2.4,-2.6 0.9,-0.8 2.2,-2 2.9,-2.6 0.7,-0.6 1.9,-1.5 2.5,-2 0.7,-0.4 1.8,-1.2 2.5,-1.6 0.7,-0.4 1.9,-1.1 2.6,-1.5 0.8,-0.3 1.9,-0.9 2.7,-1.2 0.7,-0.3 2,-0.8 2.7,-1 0.8,-0.3 2.2,-0.7 3.1,-0.9 0.8,-0.2 2.2,-0.5 3,-0.7 0.8,-0.1 2,-0.2 2.7,-0.3 0.6,-0.1 1.3,-0.1 1.6,-0.2 z M 333.9,348 c 0.1,0 4.5,2.5 9.9,5.5 5.3,3.1 9.7,5.6 9.8,5.6 0,0.1 -23.8,13.9 -52.8,30.8 -50.7,29.5 -52.8,30.7 -52.7,31 0,0.1 0.2,0.9 0.3,1.7 0.2,0.8 0.4,2 0.5,2.7 0.1,0.7 0.2,1.9 0.3,2.8 0,0.9 0.1,2.3 0,3.6 0,1.2 -0.1,2.7 -0.2,3.5 -0.1,0.7 -0.2,1.8 -0.3,2.3 -0.1,0.5 -0.3,1.3 -0.4,1.9 -0.1,0.5 -0.4,1.5 -0.5,2.2 -0.2,0.7 -0.5,1.7 -0.7,2.3 -0.2,0.6 -0.6,1.5 -0.8,2 -0.2,0.5 -0.7,1.7 -1.1,2.6 -0.4,0.8 -1,2 -1.3,2.5 -0.3,0.5 -1,1.6 -1.6,2.5 -0.5,0.8 -1.5,2.2 -2.1,2.9 -0.6,0.8 -1.8,2.1 -2.7,3 -0.9,0.9 -2.1,2.1 -2.7,2.6 -0.6,0.6 -1.6,1.3 -2.1,1.7 -0.5,0.4 -1.5,1.1 -2.1,1.5 -0.5,0.4 -1.5,1 -2,1.3 -0.5,0.3 -1.7,0.9 -2.6,1.3 -0.9,0.5 -2.1,1 -2.8,1.3 -0.6,0.2 -1.6,0.6 -2.2,0.8 -0.6,0.2 -1.5,0.5 -2.1,0.6 -0.6,0.2 -1.5,0.4 -2,0.5 -0.6,0.1 -1.4,0.3 -1.9,0.4 -0.5,0.1 -1.6,0.2 -2.3,0.3 -0.8,0.1 -2.3,0.2 -3.4,0.2 -1.2,0.1 -2.6,0 -3.6,0 -0.9,-0.1 -2.1,-0.2 -2.7,-0.3 -0.7,-0.1 -1.9,-0.3 -2.8,-0.5 -0.8,-0.1 -1.9,-0.4 -2.4,-0.5 -0.5,-0.2 -1.4,-0.5 -2.1,-0.6 -0.6,-0.3 -1.6,-0.6 -2.2,-0.9 -0.7,-0.2 -1.9,-0.8 -2.8,-1.2 -0.8,-0.4 -2,-1 -2.6,-1.4 -0.6,-0.3 -1.7,-1 -2.3,-1.4 -0.7,-0.5 -1.7,-1.1 -2.2,-1.5 -0.5,-0.4 -1.3,-1.1 -1.9,-1.6 -0.5,-0.4 -1.7,-1.6 -2.6,-2.5 -1,-1 -2.1,-2.3 -2.6,-2.8 -0.4,-0.6 -1.1,-1.4 -1.4,-1.9 -0.3,-0.4 -0.9,-1.2 -1.2,-1.7 -0.4,-0.6 -0.9,-1.5 -1.3,-2.1 -0.3,-0.6 -0.8,-1.4 -1,-1.9 -0.2,-0.4 -0.7,-1.4 -1,-2.2 -0.4,-0.8 -0.8,-2.1 -1.1,-2.8 -0.3,-0.8 -0.7,-2.2 -0.9,-3.2 -0.3,-1 -0.6,-2.3 -0.7,-3 -0.1,-0.6 -0.3,-1.7 -0.4,-2.4 -0.1,-1 -0.1,-2 -0.1,-4.8 0,-3 0,-3.7 0.2,-5.1 0.1,-0.9 0.3,-2.3 0.5,-3.1 0.2,-0.9 0.5,-2.3 0.8,-3.2 0.2,-0.8 0.6,-2.1 0.9,-2.8 0.2,-0.7 0.7,-1.9 1,-2.6 0.3,-0.7 0.8,-1.6 1,-2 0.2,-0.4 0.7,-1.2 0.9,-1.7 0.3,-0.5 0.9,-1.5 1.4,-2.2 0.5,-0.7 1.2,-1.8 1.7,-2.4 0.5,-0.6 1.2,-1.5 1.7,-2 0.4,-0.5 1.5,-1.7 2.4,-2.5 0.9,-0.9 2.3,-2.1 3,-2.7 0.8,-0.7 1.9,-1.5 2.4,-1.8 0.6,-0.4 1.4,-1 1.9,-1.3 0.5,-0.3 1.8,-1 2.8,-1.5 1.1,-0.6 2.5,-1.2 3.1,-1.4 0.6,-0.3 1.7,-0.7 2.4,-0.9 0.8,-0.3 1.9,-0.6 2.6,-0.8 0.7,-0.1 1.8,-0.4 2.6,-0.5 0.7,-0.2 1.8,-0.4 2.5,-0.4 0.7,-0.1 2.1,-0.2 3.1,-0.3 h 3.8 c 1,0.1 2.5,0.2 3.1,0.3 0.7,0 1.8,0.2 2.6,0.4 0.7,0.1 1.9,0.4 2.7,0.6 0.7,0.2 2.1,0.6 2.9,0.9 0.8,0.2 2.1,0.7 2.7,1 0.7,0.3 1.9,0.9 2.8,1.3 0.9,0.5 2.2,1.2 2.8,1.6 l 2.1,1.4 c 0.5,0.4 1.4,1 1.9,1.4 0.5,0.4 1.5,1.4 2.4,2.2 0.8,0.7 1.7,1.6 2.5,2.5 l 47.6,-27.5 C 312.5,360.4 333.9,348 333.9,348 Z"
           fill="#ffffff"
           id="path2" /></g><g
         style="line-height:1"
         id="g2"
         transform="matrix(1.4510234e14,0,0,1.4510234e14,-1.7412281e15,-1.8137792e15)"><path
           clip-rule="evenodd"
           d="M 20.998,10.949 H 24 v 3.102 h -3 v 3.028 H 19.513 V 20 H 18 V 17.079 H 16.513 V 20 H 15 V 17.079 H 9 V 20 H 7.488 V 17.079 H 6 V 20 H 4.487 V 17.079 H 3 V 14.05 H 0 v -3.1 H 3 V 5 H 20.998 Z M 6,10.949 H 7.488 V 8.102 H 6 Z m 10.51,0 H 18 V 8.102 h -1.49 z"
           fill="#d97757"
           fill-rule="evenodd"
           id="path1-3" /></g><rect
         transform="matrix(1.0692451,0,0,1.0476829,4.4441802,38.894013)"
         style="opacity:0.5078125;fill:url(#linearGradient4767);fill-opacity:1;stroke:none"
         id="rect4146"
         width="75.965775"
         height="69.024437"
         x="2"
         y="-30"
         rx="3.9569874"
         ry="3.9569881"
         clip-path="url(#clipPath4156-4-1)" /><g
         style="line-height:1"
         id="g4"
         transform="matrix(1.5403587e14,0,0,1.5403587e14,-1.8484304e15,-1.8484304e15)"><path
           d="M 19.785,0 V 7.272 H 22.5 V 17.62 H 19.565 V 24 l -7.037,-6.194 v 6.145 H 11.437 V 17.799 L 4.392,24 V 17.535 H 1.5 V 7.188 H 4.384 V 0 l 7.053,6.494 V 0.19 h 1.09 V 6.68 L 19.786,0 Z m -7.257,9.044 v 7.319 l 5.946,5.234 V 14.44 L 12.528,9.043 Z m -1.099,-0.08 -5.946,5.398 v 7.235 l 5.946,-5.234 V 8.965 Z m 8.136,7.58 h 1.844 V 8.349 H 13.46 l 6.105,5.54 z M 10.583,8.264 H 2.59 v 8.195 h 1.8 v -2.576 l 6.192,-5.62 z M 5.475,2.476 v 4.71 h 5.115 z m 13.219,0 -5.115,4.71 h 5.115 z"
           fill="#22b8cd"
           fill-rule="nonzero"
           id="path1-7" /></g><g
         style="line-height:1"
         id="g5"
         transform="matrix(1.5465399e14,0,0,1.5465399e14,-1.8558924e15,-1.8296093e15)"><path
           d="M 23.748,4.482 C 23.494,4.358 23.384,4.595 23.236,4.716 23.185,4.755 23.142,4.806 23.099,4.852 22.727,5.249 22.293,5.509 21.726,5.478 20.897,5.432 20.189,5.692 19.563,6.326 19.43,5.544 18.988,5.078 18.316,4.778 17.964,4.622 17.608,4.467 17.361,4.128 17.189,3.887 17.142,3.618 17.056,3.354 17.001,3.194 16.946,3.031 16.763,3.004 16.563,2.973 16.485,3.14 16.407,3.28 c -0.313,0.572 -0.434,1.202 -0.422,1.84 0.027,1.436 0.633,2.58 1.838,3.393 0.137,0.093 0.172,0.187 0.129,0.323 -0.082,0.28 -0.18,0.552 -0.266,0.833 -0.055,0.179 -0.137,0.217 -0.329,0.14 A 5.526,5.526 0 0 1 15.621,8.629 C 14.764,7.801 13.99,6.887 13.024,6.171 A 11.365,11.365 0 0 0 12.335,5.7 C 11.35,4.743 12.465,3.957 12.723,3.864 12.993,3.766 12.816,3.432 11.944,3.436 11.072,3.44 10.274,3.731 9.257,4.12 A 3.055,3.055 0 0 1 8.792,4.257 9.597,9.597 0 0 0 5.909,4.155 c -1.885,0.21 -3.39,1.102 -4.497,2.623 -1.33,1.828 -1.643,3.906 -1.26,6.072 0.403,2.284 1.569,4.175 3.36,5.653 1.858,1.533 3.997,2.284 6.438,2.14 1.482,-0.085 3.133,-0.284 4.994,-1.86 0.47,0.234 0.962,0.327 1.78,0.397 0.63,0.059 1.236,-0.03 1.705,-0.128 0.735,-0.156 0.684,-0.837 0.419,-0.961 -2.155,-1.004 -1.682,-0.595 -2.113,-0.926 1.096,-1.296 2.746,-2.642 3.392,-7.003 0.05,-0.347 0.007,-0.565 0,-0.845 -0.004,-0.17 0.035,-0.237 0.23,-0.256 a 4.173,4.173 0 0 0 1.545,-0.475 c 1.396,-0.763 1.96,-2.015 2.093,-3.517 0.02,-0.23 -0.004,-0.467 -0.247,-0.588 z M 11.581,18 C 9.492,16.358 8.479,15.817 8.061,15.84 7.669,15.864 7.74,16.311 7.826,16.603 c 0.09,0.288 0.207,0.486 0.371,0.739 0.114,0.167 0.192,0.416 -0.113,0.603 C 7.411,18.361 6.242,17.805 6.187,17.778 4.826,16.976 3.687,15.918 2.886,14.471 2.112,13.078 1.662,11.584 1.588,9.989 1.568,9.603 1.681,9.467 2.065,9.397 A 4.696,4.696 0 0 1 3.594,9.358 c 2.132,0.312 3.946,1.265 5.468,2.774 0.868,0.86 1.525,1.887 2.202,2.891 0.72,1.066 1.494,2.082 2.48,2.914 0.348,0.292 0.625,0.514 0.891,0.677 -0.802,0.09 -2.14,0.11 -3.054,-0.614 z m 1,-6.44 a 0.306,0.306 0 0 1 0.415,-0.287 0.302,0.302 0 0 1 0.2,0.288 0.306,0.306 0 0 1 -0.31,0.307 0.303,0.303 0 0 1 -0.304,-0.308 z m 3.11,1.596 c -0.2,0.081 -0.399,0.151 -0.59,0.16 a 1.245,1.245 0 0 1 -0.798,-0.254 c -0.274,-0.23 -0.47,-0.358 -0.552,-0.758 a 1.73,1.73 0 0 1 0.016,-0.588 C 13.837,11.389 13.759,11.179 13.528,10.989 13.341,10.833 13.102,10.79 12.84,10.79 a 0.559,0.559 0 0 1 -0.254,-0.078 c -0.11,-0.054 -0.2,-0.19 -0.114,-0.358 0.028,-0.054 0.16,-0.186 0.192,-0.21 0.356,-0.202 0.767,-0.136 1.146,0.016 0.352,0.144 0.618,0.408 1.001,0.782 0.391,0.451 0.462,0.576 0.685,0.914 0.176,0.265 0.336,0.537 0.445,0.848 0.067,0.195 -0.019,0.354 -0.25,0.452 z"
           fill="#4d6bfe"
           id="path1-5" /></g></g></g></svg>
