<?xml version="1.0" encoding="UTF-8" standalone="no"?>
<svg
   viewBox="0 0 96 96"
   version="1.1"
   id="svg26"
   sodipodi:docname="gemini.svg"
   inkscape:version="1.4.2 (ebf0e940d0, 2025-05-08)"
   xmlns:inkscape="http://www.inkscape.org/namespaces/inkscape"
   xmlns:sodipodi="http://sodipodi.sourceforge.net/DTD/sodipodi-0.dtd"
   xmlns:xlink="http://www.w3.org/1999/xlink"
   xmlns="http://www.w3.org/2000/svg"
   xmlns:svg="http://www.w3.org/2000/svg"
   xmlns:rdf="http://www.w3.org/1999/02/22-rdf-syntax-ns#"
   xmlns:cc="http://creativecommons.org/ns#"
   xmlns:dc="http://purl.org/dc/elements/1.1/">
  <metadata
     id="metadata30">
    <rdf:RDF>
      <cc:Work
         rdf:about="">
        <dc:format>image/svg+xml</dc:format>
        <dc:type
           rdf:resource="http://purl.org/dc/dcmitype/StillImage" />
      </cc:Work>
    </rdf:RDF>
  </metadata>
  <sodipodi:namedview
     pagecolor="#ffffff"
     bordercolor="#666666"
     borderopacity="1"
     objecttolerance="10"
     gridtolerance="10"
     guidetolerance="10"
     inkscape:pageopacity="0"
     inkscape:pageshadow="2"
     inkscape:window-width="1536"
     inkscape:window-height="789"
     id="namedview28"
     showgrid="false"
     inkscape:zoom="3.7403158"
     inkscape:cx="3.6093209"
     inkscape:cy="45.718065"
     inkscape:window-x="0"
     inkscape:window-y="0"
     inkscape:window-maximized="1"
     inkscape:current-layer="g2574"
     inkscape:showpageshadow="2"
     inkscape:pagecheckerboard="0"
     inkscape:deskcolor="#d1d1d1" />
  <defs
     id="defs3051">
    <style
       type="text/css"
       id="current-color-scheme">
      .ColorScheme-Text {
        color:#4d4d4d;
      }
      </style>
    <linearGradient
       inkscape:collect="always"
       xlink:href="#linearGradient6139-0"
       id="linearGradient4071"
       gradientUnits="userSpaceOnUse"
       gradientTransform="matrix(1.1071428,0,0,1.1071426,-4.9939026,-3.620687)"
       x1="6"
       y1="47.000011"
       x2="90"
       y2="47.000011" />
    <linearGradient
       id="linearGradient6139-0">
      <stop
         id="stop6141-2"
         offset="0"
         style="stop-color:#b2b9bc;stop-opacity:1" />
      <stop
         style="stop-color:#ffffff;stop-opacity:1;"
         offset="0.25"
         id="stop6151-0" />
      <stop
         style="stop-color:#96a0a4;stop-opacity:1"
         offset="0.5"
         id="stop6147-1" />
      <stop
         id="stop6149-4"
         offset="0.75"
         style="stop-color:#f9fafb;stop-opacity:1;" />
      <stop
         id="stop6143-4"
         offset="1"
         style="stop-color:#b2b9bc;stop-opacity:1" />
    </linearGradient>
    <linearGradient
       gradientTransform="translate(0.1489535,0.415026)"
       inkscape:collect="always"
       xlink:href="#linearGradient3832-0-6-1-1"
       id="linearGradient4129"
       x1="1.5"
       y1="88.171875"
       x2="94.5"
       y2="88.171875"
       gradientUnits="userSpaceOnUse" />
    <linearGradient
       id="linearGradient3832-0-6-1-1">
      <stop
         style="stop-color:#000000;stop-opacity:1;"
         offset="0"
         id="stop3834-6-3-7-1" />
      <stop
         id="stop3872-2-4"
         offset="0.1"
         style="stop-color:#000000;stop-opacity:0.58823532;" />
      <stop
         style="stop-color:#000000;stop-opacity:0.58823532;"
         offset="0.89999998"
         id="stop3844-6-2-7-6" />
      <stop
         style="stop-color:#000000;stop-opacity:1;"
         offset="1"
         id="stop3836-5-0-2-9" />
    </linearGradient>
    <radialGradient
       inkscape:collect="always"
       xlink:href="#linearGradient3737"
       id="radialGradient7462"
       gradientUnits="userSpaceOnUse"
       gradientTransform="matrix(0.97513378,0,0,0.04919072,34.047649,80.581722)"
       cx="13.948145"
       cy="44.892841"
       fx="13.948145"
       fy="44.892841"
       r="43.199203" />
    <linearGradient
       id="linearGradient3737">
      <stop
         offset="0"
         style="stop-color:#ffffff;stop-opacity:1"
         id="stop3739" />
      <stop
         offset="1"
         style="stop-color:#ffffff;stop-opacity:0"
         id="stop3741" />
    </linearGradient>
    <radialGradient
       inkscape:collect="always"
       xlink:href="#linearGradient3737"
       id="radialGradient7464"
       gradientUnits="userSpaceOnUse"
       gradientTransform="matrix(0.88832663,0,0,0.04919072,31.959518,-90.31726)"
       cx="13.948145"
       cy="44.892841"
       fx="13.948145"
       fy="44.892841"
       r="43.199203" />
    <linearGradient
       inkscape:collect="always"
       xlink:href="#linearGradient3737"
       id="linearGradient4767"
       gradientUnits="userSpaceOnUse"
       x1="2.7713892"
       y1="-28.64156"
       x2="50.527882"
       y2="14.514202" />
    <clipPath
       id="clipPath4156-4-1"
       clipPathUnits="userSpaceOnUse">
      <path
         inkscape:connector-curvature="0"
         id="path4158-0-8"
         d="m 27.046336,-55.695463 -14.21366,13.321486 h 0.06127 l 15.653407,21.770763 10.231384,-10.546177 C 38.561832,-32.30156 27.468089,-54.819245 27.046336,-55.695463 Z M 9.6468554,-39.382809 -5.2407289,-25.32124 15.987863,-7.8059573 26.372412,-18.382966 Z m 31.4906096,12.951445 -9.741259,9.713584 8.944804,12.4580526 7.780753,-7.5550056 z m -49.8397109,4.378822 -13.7541661,12.9822847 26.2830181,13.84571 0.06127,-0.0617 -0.122531,-0.0617 L 13.598503,-5.4007374 -8.7022409,-22.052595 Z m 38.0154159,7.400825 -9.802525,9.7752596 11.579232,9.5594001 7.62759,-7.40083 -8.669108,-11.0087257 z m 20.187073,5.6739697 -7.382526,7.2158 6.187844,8.54179 5.820249,-6.13651996 z m -32.195166,6.32154 -9.5574606,9.49772 13.6622686,7.1849703 7.933918,-7.6783603 z m 23.311629,2.37443004 -7.10683,6.93826996 8.362778,6.9074403 5.360756,-5.6739699 -0.06127,-0.0925 -0.0919,0.12335 -6.463539,-8.20258036 z m -8.730374,8.54178036 -7.505057,7.3391599 10.353916,5.45811 c 1.397496,-1.32103 5.67514,-6.12292 5.850882,-6.32154 z"
         style="opacity:0.6;fill:#ffffff;fill-opacity:1;stroke:none" />
    </clipPath>
    <mask
       id="maskme"
       maskUnits="userSpaceOnUse"
       x="0"
       y="0"
       width="65"
       height="65">
      <path
         d="m 32.447,0 c 0.68,0 1.273,0.465 1.439,1.125 a 38.904,38.904 0 0 0 1.999,5.905 c 2.152,5 5.105,9.376 8.854,13.125 3.751,3.75 8.126,6.703 13.125,8.855 a 38.98,38.98 0 0 0 5.906,1.999 c 0.66,0.166 1.124,0.758 1.124,1.438 0,0.68 -0.464,1.273 -1.125,1.439 a 38.902,38.902 0 0 0 -5.905,1.999 c -5,2.152 -9.375,5.105 -13.125,8.854 -3.749,3.751 -6.702,8.126 -8.854,13.125 a 38.973,38.973 0 0 0 -2,5.906 1.485,1.485 0 0 1 -1.438,1.124 c -0.68,0 -1.272,-0.464 -1.438,-1.125 a 38.913,38.913 0 0 0 -2,-5.905 c -2.151,-5 -5.103,-9.375 -8.854,-13.125 C 16.405,40.99 12.03,38.037 7.03,35.885 a 38.973,38.973 0 0 0 -5.905,-2 A 1.485,1.485 0 0 1 0,32.448 c 0,-0.68 0.465,-1.272 1.125,-1.438 a 38.903,38.903 0 0 0 5.905,-2 c 5,-2.151 9.376,-5.104 13.125,-8.854 3.75,-3.749 6.703,-8.125 8.855,-13.125 A 38.972,38.972 0 0 0 31.009,1.126 1.485,1.485 0 0 1 32.447,0 Z"
         fill="#000000"
         id="path1" />
      <path
         d="m 32.447,0 c 0.68,0 1.273,0.465 1.439,1.125 a 38.904,38.904 0 0 0 1.999,5.905 c 2.152,5 5.105,9.376 8.854,13.125 3.751,3.75 8.126,6.703 13.125,8.855 a 38.98,38.98 0 0 0 5.906,1.999 c 0.66,0.166 1.124,0.758 1.124,1.438 0,0.68 -0.464,1.273 -1.125,1.439 a 38.902,38.902 0 0 0 -5.905,1.999 c -5,2.152 -9.375,5.105 -13.125,8.854 -3.749,3.751 -6.702,8.126 -8.854,13.125 a 38.973,38.973 0 0 0 -2,5.906 1.485,1.485 0 0 1 -1.438,1.124 c -0.68,0 -1.272,-0.464 -1.438,-1.125 a 38.913,38.913 0 0 0 -2,-5.905 c -2.151,-5 -5.103,-9.375 -8.854,-13.125 C 16.405,40.99 12.03,38.037 7.03,35.885 a 38.973,38.973 0 0 0 -5.905,-2 A 1.485,1.485 0 0 1 0,32.448 c 0,-0.68 0.465,-1.272 1.125,-1.438 a 38.903,38.903 0 0 0 5.905,-2 c 5,-2.151 9.376,-5.104 13.125,-8.854 3.75,-3.749 6.703,-8.125 8.855,-13.125 A 38.972,38.972 0 0 0 31.009,1.126 1.485,1.485 0 0 1 32.447,0 Z"
         fill="url(#prefix__paint0_linear_2001_67)"
         id="path2" />
    </mask>
    <linearGradient
       id="prefix__paint0_linear_2001_67"
       x1="18.447001"
       y1="43.419998"
       x2="52.153"
       y2="15.004"
       gradientUnits="userSpaceOnUse">
      <stop
         stop-color="#4893FC"
         id="stop24" />
      <stop
         offset=".27"
         stop-color="#4893FC"
         id="stop25" />
      <stop
         offset=".777"
         stop-color="#969DFF"
         id="stop26" />
      <stop
         offset="1"
         stop-color="#BD99FE"
         id="stop27" />
    </linearGradient>
    <filter
       id="prefix__filter0_f_2001_67"
       x="-19.823999"
       y="13.152"
       width="39.273998"
       height="43.216999"
       filterUnits="userSpaceOnUse"
       color-interpolation-filters="sRGB">
      <feFlood
         flood-opacity="0"
         result="BackgroundImageFix"
         id="feFlood14" />
      <feBlend
         in="SourceGraphic"
         in2="BackgroundImageFix"
         result="shape"
         id="feBlend14"
         mode="normal" />
      <feGaussianBlur
         stdDeviation="2.46"
         result="effect1_foregroundBlur_2001_67"
         id="feGaussianBlur14" />
    </filter>
    <filter
       id="prefix__filter1_f_2001_67"
       x="-15.001"
       y="-40.257"
       width="84.867996"
       height="85.688004"
       filterUnits="userSpaceOnUse"
       color-interpolation-filters="sRGB">
      <feFlood
         flood-opacity="0"
         result="BackgroundImageFix"
         id="feFlood15" />
      <feBlend
         in="SourceGraphic"
         in2="BackgroundImageFix"
         result="shape"
         id="feBlend15"
         mode="normal" />
      <feGaussianBlur
         stdDeviation="11.891"
         result="effect1_foregroundBlur_2001_67"
         id="feGaussianBlur15" />
    </filter>
    <filter
       id="prefix__filter2_f_2001_67"
       x="-20.775999"
       y="11.927"
       width="79.454002"
       height="90.916"
       filterUnits="userSpaceOnUse"
       color-interpolation-filters="sRGB">
      <feFlood
         flood-opacity="0"
         result="BackgroundImageFix"
         id="feFlood16" />
      <feBlend
         in="SourceGraphic"
         in2="BackgroundImageFix"
         result="shape"
         id="feBlend16"
         mode="normal" />
      <feGaussianBlur
         stdDeviation="10.109"
         result="effect1_foregroundBlur_2001_67"
         id="feGaussianBlur16" />
    </filter>
    <filter
       id="prefix__filter3_f_2001_67"
       x="-20.775999"
       y="11.927"
       width="79.454002"
       height="90.916"
       filterUnits="userSpaceOnUse"
       color-interpolation-filters="sRGB">
      <feFlood
         flood-opacity="0"
         result="BackgroundImageFix"
         id="feFlood17" />
      <feBlend
         in="SourceGraphic"
         in2="BackgroundImageFix"
         result="shape"
         id="feBlend17"
         mode="normal" />
      <feGaussianBlur
         stdDeviation="10.109"
         result="effect1_foregroundBlur_2001_67"
         id="feGaussianBlur17" />
    </filter>
    <filter
       id="prefix__filter4_f_2001_67"
       x="-19.844999"
       y="15.459"
       width="79.731003"
       height="81.504997"
       filterUnits="userSpaceOnUse"
       color-interpolation-filters="sRGB">
      <feFlood
         flood-opacity="0"
         result="BackgroundImageFix"
         id="feFlood18" />
      <feBlend
         in="SourceGraphic"
         in2="BackgroundImageFix"
         result="shape"
         id="feBlend18"
         mode="normal" />
      <feGaussianBlur
         stdDeviation="10.109"
         result="effect1_foregroundBlur_2001_67"
         id="feGaussianBlur18" />
    </filter>
    <filter
       id="prefix__filter5_f_2001_67"
       x="29.832001"
       y="-11.552"
       width="75.116997"
       height="73.758003"
       filterUnits="userSpaceOnUse"
       color-interpolation-filters="sRGB">
      <feFlood
         flood-opacity="0"
         result="BackgroundImageFix"
         id="feFlood19" />
      <feBlend
         in="SourceGraphic"
         in2="BackgroundImageFix"
         result="shape"
         id="feBlend19"
         mode="normal" />
      <feGaussianBlur
         stdDeviation="9.606"
         result="effect1_foregroundBlur_2001_67"
         id="feGaussianBlur19" />
    </filter>
    <filter
       id="prefix__filter6_f_2001_67"
       x="-38.583"
       y="-16.253"
       width="78.135002"
       height="78.758003"
       filterUnits="userSpaceOnUse"
       color-interpolation-filters="sRGB">
      <feFlood
         flood-opacity="0"
         result="BackgroundImageFix"
         id="feFlood20" />
      <feBlend
         in="SourceGraphic"
         in2="BackgroundImageFix"
         result="shape"
         id="feBlend20"
         mode="normal" />
      <feGaussianBlur
         stdDeviation="8.706"
         result="effect1_foregroundBlur_2001_67"
         id="feGaussianBlur20" />
    </filter>
    <filter
       id="prefix__filter7_f_2001_67"
       x="8.1070004"
       y="-5.9660001"
       width="78.876999"
       height="77.539001"
       filterUnits="userSpaceOnUse"
       color-interpolation-filters="sRGB">
      <feFlood
         flood-opacity="0"
         result="BackgroundImageFix"
         id="feFlood21" />
      <feBlend
         in="SourceGraphic"
         in2="BackgroundImageFix"
         result="shape"
         id="feBlend21"
         mode="normal" />
      <feGaussianBlur
         stdDeviation="7.775"
         result="effect1_foregroundBlur_2001_67"
         id="feGaussianBlur21" />
    </filter>
    <filter
       id="prefix__filter8_f_2001_67"
       x="13.587"
       y="-18.488001"
       width="56.271999"
       height="51.810001"
       filterUnits="userSpaceOnUse"
       color-interpolation-filters="sRGB">
      <feFlood
         flood-opacity="0"
         result="BackgroundImageFix"
         id="feFlood22" />
      <feBlend
         in="SourceGraphic"
         in2="BackgroundImageFix"
         result="shape"
         id="feBlend22"
         mode="normal" />
      <feGaussianBlur
         stdDeviation="6.957"
         result="effect1_foregroundBlur_2001_67"
         id="feGaussianBlur22" />
    </filter>
    <filter
       id="prefix__filter9_f_2001_67"
       x="-15.526"
       y="-31.297001"
       width="70.856003"
       height="69.306"
       filterUnits="userSpaceOnUse"
       color-interpolation-filters="sRGB">
      <feFlood
         flood-opacity="0"
         result="BackgroundImageFix"
         id="feFlood23" />
      <feBlend
         in="SourceGraphic"
         in2="BackgroundImageFix"
         result="shape"
         id="feBlend23"
         mode="normal" />
      <feGaussianBlur
         stdDeviation="5.876"
         result="effect1_foregroundBlur_2001_67"
         id="feGaussianBlur23" />
    </filter>
    <filter
       id="prefix__filter10_f_2001_67"
       x="-14.168"
       y="20.964001"
       width="55.500999"
       height="51.570999"
       filterUnits="userSpaceOnUse"
       color-interpolation-filters="sRGB">
      <feFlood
         flood-opacity="0"
         result="BackgroundImageFix"
         id="feFlood24" />
      <feBlend
         in="SourceGraphic"
         in2="BackgroundImageFix"
         result="shape"
         id="feBlend24"
         mode="normal" />
      <feGaussianBlur
         stdDeviation="7.273"
         result="effect1_foregroundBlur_2001_67"
         id="feGaussianBlur24" />
    </filter>
  </defs>
  <g
     transform="translate(0,-1026.5197)"
     id="layer1"
     inkscape:label="Livello 1">
    <g
       id="g2574"
       style="display:inline"
       transform="translate(-0.14895645,1026.1047)">
      <path
         style="display:inline;opacity:0.15;fill:#000000;fill-opacity:1;fill-rule:nonzero;stroke:none"
         d="M 89.29181,0.415026 H 7.0060911 c -3.798848,0 -6.8571352,3.058285 -6.8571352,6.8571399 V 89.557884 c 0,3.798857 3.0582872,6.857142 6.8571352,6.857142 H 89.29181 c 3.798857,0 6.857147,-3.058285 6.857147,-6.857142 V 7.2721659 c 0,-3.7988549 -3.05829,-6.8571399 -6.857147,-6.8571399 z"
         id="path3288"
         inkscape:connector-curvature="0" />
      <path
         inkscape:connector-curvature="0"
         id="path4085"
         d="M 88.648954,1.165026 H 7.6489471 c -3.739492,0 -6.749993,3.010499 -6.749993,6.7499969 V 88.915026 c 0,3.739501 3.010501,6.75 6.749993,6.75 H 88.648954 c 3.739503,0 6.750003,-3.010499 6.750003,-6.75 V 7.9150229 c 0,-3.7394979 -3.0105,-6.7499969 -6.750003,-6.7499969 z"
         style="display:inline;opacity:0.15;fill:#000000;fill-opacity:1;fill-rule:nonzero;stroke:none" />
      <path
         style="display:inline;fill:url(#linearGradient4071);fill-opacity:1;fill-rule:nonzero;stroke:none"
         d="M 88.006093,1.915026 H 8.2918111 c -3.680143,0 -6.6428566,2.962713 -6.6428566,6.6428549 V 88.272171 c 0,3.680142 2.9627136,6.642856 6.6428566,6.642856 H 88.006093 c 3.680143,0 6.642854,-2.962714 6.642854,-6.642856 V 8.5578809 c 0,-3.6801419 -2.962711,-6.6428549 -6.642854,-6.6428549 z"
         id="rect4251-1"
         inkscape:connector-curvature="0" />
      <path
         style="display:inline;opacity:0.77864583;fill:#f5f3f3;fill-opacity:1;fill-rule:nonzero;stroke:none;stroke-width:1.02950251"
         d="m 11.390247,6.8021682 c -2.8564964,0 -5.1241284,2.2883782 -5.1241284,5.1710028 v 21.42734 7.239403 39.913674 c 1.0972399,1.684484 2.9688485,2.811732 5.1241284,2.811732 h 4.099303 65.588849 4.099302 c 2.155281,0 4.026889,-1.127248 5.124129,-2.811732 V 40.639914 33.400511 11.973171 c 0,-2.8826246 -2.267632,-5.1710028 -5.124129,-5.1710028 z"
         id="path3400-6"
         inkscape:connector-curvature="0"
         sodipodi:nodetypes="sscccsccscccsss" />
      <g
         mask="url(#maskme)"
         id="g14"
         transform="translate(17.148956,13.415)">
        <g
           filter="url(#prefix__filter0_f_2001_67)"
           id="g3">
          <path
             d="m -5.859,50.734 c 7.498,2.663 16.116,-2.33 19.249,-11.152 3.133,-8.821 -0.406,-18.131 -7.904,-20.794 -7.498,-2.663 -16.116,2.33 -19.25,11.151 -3.132,8.822 0.407,18.132 7.905,20.795 z"
             fill="#ffe432"
             id="path3" />
        </g>
        <g
           filter="url(#prefix__filter1_f_2001_67)"
           id="g4">
          <path
             d="m 27.433,21.649 c 10.3,0 18.651,-8.535 18.651,-19.062 0,-10.528 -8.35,-19.062 -18.651,-19.062 -10.301,0 -18.653,8.535 -18.653,19.062 0,10.527 8.35,19.062 18.652,19.062 z"
             fill="#fc413d"
             id="path4" />
        </g>
        <g
           filter="url(#prefix__filter2_f_2001_67)"
           id="g5">
          <path
             d="M 20.184,82.608 C 30.937,82.083 39.102,70.364 38.421,56.434 37.741,42.504 28.471,31.637 17.718,32.163 6.965,32.689 -1.2,44.407 -0.519,58.337 c 0.681,13.93 9.95,24.797 20.703,24.271 z"
             fill="#00b95c"
             id="path5" />
        </g>
        <g
           filter="url(#prefix__filter3_f_2001_67)"
           id="g6">
          <path
             d="M 20.184,82.608 C 30.937,82.083 39.102,70.364 38.421,56.434 37.741,42.504 28.471,31.637 17.718,32.163 6.965,32.689 -1.2,44.407 -0.519,58.337 c 0.681,13.93 9.95,24.797 20.703,24.271 z"
             fill="#00b95c"
             id="path6" />
        </g>
        <g
           filter="url(#prefix__filter4_f_2001_67)"
           id="g7">
          <path
             d="m 30.954,74.181 c 9.014,-5.485 11.427,-17.976 5.389,-27.9 -6.038,-9.925 -18.241,-13.524 -27.256,-8.04 -9.015,5.486 -11.428,17.977 -5.39,27.902 6.04,9.924 18.242,13.523 27.257,8.038 z"
             fill="#00b95c"
             id="path7" />
        </g>
        <g
           filter="url(#prefix__filter5_f_2001_67)"
           id="g8">
          <path
             d="m 67.391,42.993 c 10.132,0 18.346,-7.91 18.346,-17.666 0,-9.757 -8.214,-17.667 -18.346,-17.667 -10.132,0 -18.346,7.91 -18.346,17.667 0,9.757 8.214,17.666 18.346,17.666 z"
             fill="#3186ff"
             id="path8" />
        </g>
        <g
           filter="url(#prefix__filter6_f_2001_67)"
           id="g9">
          <path
             d="m -13.065,40.944 c 9.33,7.094 22.959,4.869 30.442,-4.972 7.483,-9.84 5.987,-23.569 -3.343,-30.663 -9.33,-7.095 -22.958,-4.87 -30.442,4.971 -7.483,9.84 -5.986,23.57 3.343,30.664 z"
             fill="#fbbc04"
             id="path9" />
        </g>
        <g
           filter="url(#prefix__filter7_f_2001_67)"
           id="g10">
          <path
             d="M 34.74,51.43 C 45.875,59.086 60.636,56.954 67.708,46.666 74.781,36.379 71.487,21.834 60.351,14.178 49.215,6.52 34.455,8.654 27.382,18.94 20.31,29.228 23.603,43.773 34.739,51.43 Z"
             fill="#3186ff"
             id="path10" />
        </g>
        <g
           filter="url(#prefix__filter8_f_2001_67)"
           id="g11">
          <path
             d="m 54.984,-2.336 c 2.833,3.852 -0.808,11.34 -8.131,16.727 -7.324,5.387 -15.557,6.631 -18.39,2.78 -2.833,-3.853 0.807,-11.342 8.13,-16.728 7.324,-5.387 15.558,-6.631 18.39,-2.78 z"
             fill="#749bff"
             id="path11" />
        </g>
        <g
           filter="url(#prefix__filter9_f_2001_67)"
           id="g12">
          <path
             d="m 31.727,16.104 c 11.326,-10.506 15.213,-24.73 8.683,-31.77 -6.53,-7.04 -21.006,-4.232 -32.332,6.274 -11.326,10.506 -15.214,24.73 -8.683,31.77 6.53,7.04 21.006,4.232 32.332,-6.274 z"
             fill="#fc413d"
             id="path12" />
        </g>
        <g
           filter="url(#prefix__filter10_f_2001_67)"
           id="g13">
          <path
             d="m 8.51,53.838 c 6.732,4.818 14.46,5.55 17.262,1.636 C 28.574,51.559 25.388,44.48 18.656,39.662 11.925,34.844 4.196,34.112 1.395,38.026 -1.407,41.941 1.778,49.02 8.51,53.838 Z"
             fill="#ffee48"
             id="path13" />
        </g>
      </g>
      <path
         inkscape:connector-curvature="0"
         id="path4989"
         d="m 9.9740341,5.1444869 c -3.116621,0 -5.667965,2.53951 -5.667965,5.6460041 v 69.277996 c 0,3.106495 2.551344,5.646004 5.667965,5.646004 H 86.765819 c 3.116621,0 5.667968,-2.539509 5.667968,-5.646004 V 10.790491 c 0,-3.1064931 -2.551347,-5.6460041 -5.667968,-5.6460041 z m 0,2.319439 H 86.765819 c 1.888099,0 3.352022,1.480095 3.352022,3.3265651 v 69.277996 c 0,1.846474 -1.463923,3.326564 -3.352022,3.326564 H 9.9740341 c -1.888099,0 -3.352022,-1.48009 -3.352022,-3.326564 V 10.790491 c 0,-1.8464701 1.463923,-3.3265651 3.352022,-3.3265651 z"
         style="color:#000000;font-style:normal;font-variant:normal;font-weight:normal;font-stretch:normal;font-size:medium;line-height:normal;font-family:Sans;-inkscape-font-specification:Sans;text-indent:0;text-align:start;text-decoration:none;text-decoration-line:none;letter-spacing:normal;word-spacing:normal;text-transform:none;writing-mode:lr-tb;direction:ltr;baseline-shift:baseline;text-anchor:start;display:inline;overflow:visible;visibility:visible;fill:#1f2224;fill-opacity:0.63265303;stroke:none;stroke-width:2.3755002;marker:none;enable-background:accumulate" />
      <path
         inkscape:connector-curvature="0"
         style="display:inline;opacity:0.65818182;fill:url(#linearGradient4129);fill-opacity:1;fill-rule:nonzero;stroke:none"
         d="m 1.6489535,82.258776 v 6 c 0,3.680142 2.9761066,6.65625 6.6562496,6.65625 H 87.992703 c 3.680143,0 6.656254,-2.976108 6.656254,-6.65625 v -6 c 0,3.680142 -2.976111,6.65625 -6.656254,6.65625 H 8.3052031 c -3.680143,0 -6.6562496,-2.976108 -6.6562496,-6.65625 z"
         id="path4118" />
      <rect
         style="opacity:0.55;fill:url(#radialGradient7462);fill-opacity:1;stroke:none"
         id="rect4131"
         width="84.250008"
         height="4.25"
         x="5.5239539"
         y="80.665031"
         rx="0"
         ry="4.25" />
      <rect
         ry="4.25"
         rx="0"
         y="-90.233963"
         x="5.9750223"
         height="4.25"
         width="76.75"
         id="rect4141"
         style="opacity:0.669;fill:url(#radialGradient7464);fill-opacity:1;stroke:none"
         transform="rotate(90)" />
      <rect
         transform="matrix(1.0692451,0,0,1.0476829,4.4441802,38.894013)"
         style="opacity:0.5078125;fill:url(#linearGradient4767);fill-opacity:1;stroke:none"
         id="rect4146"
         width="75.965775"
         height="69.024437"
         x="2"
         y="-30"
         rx="3.9569874"
         ry="3.9569881"
         clip-path="url(#clipPath4156-4-1)" />
    </g>
  </g>
</svg>
